<svg width="24" height="24" viewBox="0 0 24 24" fill="none" xmlns="http://www.w3.org/2000/svg">
  <path d="M9 2L7.17 4H4C2.9 4 2 4.9 2 6V18C2 19.1 2.9 20 4 20H20C21.1 20 22 19.1 22 18V6C22 4.9 21.1 4 20 4H16.83L15 2H9ZM12 17C9.24 17 7 14.76 7 12C7 9.24 9.24 7 12 7C14.76 7 17 9.24 17 12C17 14.76 14.76 17 12 17Z" fill="url(#camGrad)" />
  <circle cx="12" cy="12" r="3.2" fill="url(#lensGrad)" />
  <circle cx="18" cy="7.5" r="1.2" fill="#10B981" />
  
  <defs>
    <linearGradient id="camGrad" x1="2" y1="2" x2="22" y2="20" gradientUnits="userSpaceOnUse">
      <stop offset="0%" stop-color="#06B6D4" />
      <stop offset="100%" stop-color="#3B82F6" />
    </linearGradient>
    <linearGradient id="lensGrad" x1="8.8" y1="8.8" x2="15.2" y2="15.2" gradientUnits="userSpaceOnUse">
      <stop offset="0%" stop-color="#8B5CF6" />
      <stop offset="100%" stop-color="#3B82F6" />
    </linearGradient>
  </defs>
</svg>
