<svg width="24" height="24" viewBox="0 0 24 24" fill="none" xmlns="http://www.w3.org/2000/svg">
  <path d="M12 22C13.1 22 14 21.1 14 20H10C10 21.1 10.9 22 12 22Z" fill="url(#bellGrad)" />
  <path d="M18 16V11C18 7.93 16.36 5.36 13.5 4.68V4C13.5 3.17 12.83 2.5 12 2.5C11.17 2.5 10.5 3.17 10.5 4V4.68C7.63 5.36 6 7.92 6 11V16L4 18V19H20V18L18 16ZM16 17H8V11C8 8.52 9.51 6.5 12 6.5C14.49 6.5 16 8.52 16 11V17Z" fill="url(#bellGrad)" />
  <!-- Notification Dot -->
  <circle cx="18" cy="6" r="3.5" fill="#EF4444" stroke="#1E1B4B" stroke-width="1" />
  
  <defs>
    <linearGradient id="bellGrad" x1="4" y1="2.5" x2="20" y2="22" gradientUnits="userSpaceOnUse">
      <stop offset="0%" stop-color="#3B82F6" />
      <stop offset="100%" stop-color="#8B5CF6" />
    </linearGradient>
  </defs>
</svg>
